<?xml version="1.0" standalone="no"?>
<!DOCTYPE svg PUBLIC "-//W3C//DTD SVG 20010904//EN"
 "http://www.w3.org/TR/2001/REC-SVG-20010904/DTD/svg10.dtd">
<svg version="1.0" xmlns="http://www.w3.org/2000/svg"
 width="344.000000pt" height="344.000000pt" viewBox="0 0 344.000000 344.000000"
 preserveAspectRatio="xMidYMid meet">
<metadata>
Created by potrace 1.16, written by Peter Selinger 2001-2019
</metadata>
<g transform="translate(0.000000,344.000000) scale(0.100000,-0.100000)"
fill="#000000" stroke="none">
<path d="M1545 2991 c-89 -27 -112 -37 -186 -87 -272 -181 -365 -534 -219
-829 83 -167 245 -299 417 -339 l58 -13 -45 -7 c-243 -40 -450 -145 -615 -311
-181 -182 -292 -423 -311 -675 l-7 -90 115 0 115 0 6 88 c7 106 35 199 93 313
105 205 289 355 519 425 80 24 106 27 235 27 129 0 155 -3 235 -27 211 -64
384 -196 493 -377 74 -123 121 -274 122 -391 l0 -58 116 0 117 0 -7 90 c-19
252 -130 493 -311 675 -165 166 -372 271 -615 311 l-45 7 58 13 c276 64 487
336 487 629 0 294 -203 556 -487 629 -84 22 -259 20 -338 -3z m280 -216 c123
-32 221 -115 279 -235 29 -61 31 -73 31 -175 0 -103 -2 -114 -32 -178 -81
-171 -268 -271 -449 -240 -139 24 -257 113 -317 240 -30 64 -32 75 -32 178 0
102 2 114 31 175 92 191 290 286 489 235z"/>
</g>
</svg>
